<svg width="21" height="22" viewBox="0 0 21 22" fill="none" xmlns="http://www.w3.org/2000/svg">
<path d="M18.0833 12.5977H7.58333C7.42862 12.5977 7.28025 12.6601 7.17085 12.7712C7.06146 12.8823 7 13.033 7 13.1901C7 13.3472 7.06146 13.4979 7.17085 13.609C7.28025 13.7201 7.42862 13.7826 7.58333 13.7826H18.0833C18.238 13.7826 18.3864 13.7201 18.4958 13.609C18.6052 13.4979 18.6667 13.3472 18.6667 13.1901C18.6667 13.033 18.6052 12.8823 18.4958 12.7712C18.3864 12.6601 18.238 12.5977 18.0833 12.5977Z" fill="#787878"/>
<path d="M7 9.63542C7 9.79254 7.06146 9.94323 7.17085 10.0543C7.28025 10.1654 7.42862 10.2279 7.58333 10.2279H18.0833C18.238 10.2279 18.3864 10.1654 18.4958 10.0543C18.6052 9.94323 18.6667 9.79254 18.6667 9.63542C18.6667 9.47829 18.6052 9.3276 18.4958 9.21649C18.3864 9.10539 18.238 9.04297 18.0833 9.04297H7.58333C7.42862 9.04297 7.28025 9.10539 7.17085 9.21649C7.06146 9.3276 7 9.47829 7 9.63542Z" fill="#787878"/>
<path d="M15.75 16.1523H7.58333C7.42862 16.1523 7.28025 16.2148 7.17085 16.3259C7.06146 16.437 7 16.5877 7 16.7448C7 16.9019 7.06146 17.0526 7.17085 17.1637C7.28025 17.2748 7.42862 17.3372 7.58333 17.3372H15.75C15.9047 17.3372 16.0531 17.2748 16.1625 17.1637C16.2719 17.0526 16.3333 16.9019 16.3333 16.7448C16.3333 16.5877 16.2719 16.437 16.1625 16.3259C16.0531 16.2148 15.9047 16.1523 15.75 16.1523Z" fill="#787878"/>
<path d="M9.26921 5.4883C9.26921 5.33117 9.20775 5.18048 9.09835 5.06937C8.98895 4.95827 8.84058 4.89585 8.68587 4.89585H5.83337V2.05802C5.83337 1.9009 5.77191 1.75021 5.66252 1.6391C5.55312 1.52799 5.40475 1.46558 5.25004 1.46558C5.09533 1.46558 4.94696 1.52799 4.83756 1.6391C4.72816 1.75021 4.66671 1.9009 4.66671 2.05802V4.89585H1.68587C1.53116 4.89585 1.38279 4.95827 1.27339 5.06937C1.164 5.18048 1.10254 5.33117 1.10254 5.4883C1.10254 5.64542 1.164 5.79612 1.27339 5.90722C1.38279 6.01833 1.53116 6.08075 1.68587 6.08075H4.66671V9.1674C4.66671 9.32453 4.72816 9.47522 4.83756 9.58632C4.94696 9.69743 5.09533 9.75985 5.25004 9.75985C5.40475 9.75985 5.55312 9.69743 5.66252 9.58632C5.77191 9.47522 5.83337 9.32453 5.83337 9.1674V6.08075H8.68587C8.84058 6.08075 8.98895 6.01833 9.09835 5.90722C9.20775 5.79612 9.26921 5.64542 9.26921 5.4883Z" fill="#787878"/>
</svg>
