<svg width="20" height="21" viewBox="0 0 20 21" fill="none" xmlns="http://www.w3.org/2000/svg">
<path d="M10.0003 18.4857C9.8775 18.4853 9.75833 18.4436 9.66136 18.3672C6.57247 15.9297 4.4447 13.8307 2.95581 11.76C1.05581 9.11371 0.622474 6.67056 1.66692 4.49825C2.41136 2.9466 4.55025 1.67707 7.05025 2.41622C8.24222 2.7659 9.28219 3.5158 10.0003 4.54339C10.7183 3.5158 11.7583 2.7659 12.9502 2.41622C15.4447 1.68836 17.5891 2.9466 18.3336 4.49825C19.378 6.67056 18.9447 9.11371 17.0447 11.76C15.5558 13.8307 13.428 15.9297 10.3391 18.3672C10.2422 18.4436 10.123 18.4853 10.0003 18.4857ZM5.62803 3.33593C5.03317 3.31241 4.44324 3.45388 3.92155 3.74514C3.39987 4.0364 2.96614 4.46645 2.66692 4.98914C1.80581 6.78341 2.1947 8.78081 3.85581 11.0885C5.62112 13.4011 7.68826 15.4588 10.0003 17.2049C12.3119 15.4605 14.379 13.4047 16.1447 11.0942C17.8114 8.78081 18.1947 6.78341 17.3336 4.99478C16.778 3.86631 15.1114 2.96917 13.2558 3.49956C12.6608 3.67814 12.1093 3.98125 11.6366 4.3894C11.1639 4.79754 10.7806 5.30167 10.5114 5.86935C10.4695 5.97283 10.3983 6.06135 10.3068 6.12364C10.2153 6.18593 10.1076 6.21919 9.99747 6.21919C9.88732 6.21919 9.77965 6.18593 9.68814 6.12364C9.59664 6.06135 9.52544 5.97283 9.48358 5.86935C9.21635 5.30025 8.83371 4.79494 8.36074 4.38655C7.88778 3.97815 7.33517 3.67588 6.73914 3.49956C6.37802 3.39303 6.00407 3.33796 5.62803 3.33593Z" fill="#787878"/>
</svg>
