<svg width="18" height="18" viewBox="0 0 18 18" fill="none" xmlns="http://www.w3.org/2000/svg">
<path d="M10.1751 9.00007L17.0835 2.09174C17.22 1.93232 17.2913 1.72726 17.2832 1.51753C17.2751 1.3078 17.1882 1.10885 17.0398 0.960437C16.8914 0.812025 16.6924 0.725081 16.4827 0.71698C16.273 0.708879 16.0679 0.780218 15.9085 0.91674L9.00014 7.82507L2.09181 0.908406C1.93489 0.751487 1.72206 0.66333 1.50014 0.66333C1.27822 0.66333 1.06539 0.751487 0.908474 0.908406C0.751554 1.06533 0.663397 1.27816 0.663397 1.50007C0.663397 1.72199 0.751554 1.93482 0.908474 2.09174L7.82514 9.00007L0.908474 15.9084C0.821239 15.9831 0.750389 16.075 0.700369 16.1784C0.65035 16.2818 0.622241 16.3944 0.617808 16.5092C0.613376 16.624 0.632713 16.7384 0.674609 16.8453C0.716504 16.9523 0.780053 17.0494 0.861265 17.1306C0.942478 17.2118 1.0396 17.2754 1.14654 17.3173C1.25348 17.3592 1.36792 17.3785 1.48269 17.3741C1.59745 17.3696 1.71006 17.3415 1.81345 17.2915C1.91684 17.2415 2.00877 17.1706 2.08347 17.0834L9.00014 10.1751L15.9085 17.0834C16.0679 17.2199 16.273 17.2913 16.4827 17.2832C16.6924 17.2751 16.8914 17.1881 17.0398 17.0397C17.1882 16.8913 17.2751 16.6923 17.2832 16.4826C17.2913 16.2729 17.22 16.0678 17.0835 15.9084L10.1751 9.00007Z" fill="#787878"/>
</svg>
