<svg width="25" height="30" viewBox="0 0 25 30" fill="none" xmlns="http://www.w3.org/2000/svg">
<path d="M14.2084 6C14.2084 5.40326 14.0132 4.83097 13.6656 4.40901C13.3181 3.98705 12.8467 3.75 12.3552 3.75C11.8637 3.75 11.3923 3.98705 11.0447 4.40901C10.6972 4.83097 10.5019 5.40326 10.5019 6H9.2664C9.2664 5.00544 9.59183 4.05161 10.1711 3.34835C10.7503 2.64509 11.536 2.25 12.3552 2.25C13.1744 2.25 13.96 2.64509 14.5393 3.34835C15.1185 4.05161 15.4439 5.00544 15.4439 6H21.0037C21.1676 6 21.3247 6.07902 21.4405 6.21967C21.5564 6.36032 21.6215 6.55109 21.6215 6.75C21.6215 6.94891 21.5564 7.13968 21.4405 7.28033C21.3247 7.42098 21.1676 7.5 21.0037 7.5H20.3193L18.718 24.345C18.6483 25.0761 18.3597 25.7506 17.907 26.2401C17.4544 26.7297 16.8693 27.0001 16.2631 27H8.44726C7.84106 27.0001 7.25597 26.7297 6.80332 26.2401C6.35066 25.7506 6.06202 25.0761 5.99231 24.345L4.38986 7.5H3.70662C3.56203 7.50006 3.42201 7.43854 3.31094 7.32617C3.19986 7.21379 3.12478 7.05767 3.09875 6.885L3.08887 6.75C3.08887 6.55109 3.15395 6.36032 3.2698 6.21967C3.38565 6.07902 3.54278 6 3.70662 6H14.2084ZM19.0739 7.5H5.63525L7.21917 24.1725C7.25404 24.5382 7.39845 24.8755 7.6249 25.1203C7.85136 25.3651 8.14405 25.5002 8.44726 25.5H16.2631C16.5661 25.4999 16.8585 25.3646 17.0847 25.1198C17.3109 24.8751 17.4551 24.5379 17.4899 24.1725L19.0739 7.5ZM10.5019 11.25C10.8046 11.25 11.0579 11.4825 11.1098 11.7885L11.1197 11.907V21.0945C11.1197 21.456 10.8429 21.75 10.5019 21.75C10.1992 21.75 9.94593 21.5175 9.89404 21.2115L9.88416 21.093V11.9085C9.88416 11.5455 10.1609 11.2515 10.5019 11.2515V11.25ZM14.2084 11.25C14.5111 11.25 14.7644 11.4825 14.8163 11.7885L14.8262 11.907V21.0945C14.8262 21.456 14.5494 21.75 14.2084 21.75C13.9057 21.75 13.6525 21.5175 13.6006 21.2115L13.5907 21.093V11.9085C13.5907 11.5455 13.8674 11.2515 14.2084 11.2515V11.25Z" fill="#808080"/>
</svg>
