<svg width="25" height="26" viewBox="0 0 25 26" fill="none" xmlns="http://www.w3.org/2000/svg">
<path d="M12.5 21.4531C7.8 21.4531 4 17.5938 4 12.8203C4 8.04688 7.8 4.1875 12.5 4.1875C17.2 4.1875 21 8.04688 21 12.8203C21 17.5938 17.2 21.4531 12.5 21.4531ZM12.5 5.20312C8.35 5.20312 5 8.60547 5 12.8203C5 17.0352 8.35 20.4375 12.5 20.4375C16.65 20.4375 20 17.0352 20 12.8203C20 8.60547 16.65 5.20312 12.5 5.20312Z" fill="#787878"/>
<path d="M10 17.2383V8.40234L17.5 12.8203L10 17.2383ZM11 10.1289V15.4609L15.5 12.7695L11 10.1289Z" fill="#787878"/>
</svg>
