<svg width="351" height="59" viewBox="0 0 351 59" fill="none" xmlns="http://www.w3.org/2000/svg">
<path d="M176.505 44.6922H157.463C157.463 37.5985 157.421 17.8014 157.421 17.8014C154.972 14.112 152.49 10.3471 150.151 6.77508C150.151 23.0504 150.168 51.9117 150.168 51.9117H183.339L176.505 44.6922ZM200 6.26358V51.9872H192.739L192.755 17.8349C195.757 13.1896 198.13 9.36604 200 6.26358H200ZM181.494 28.878C181.603 28.9871 181.712 29.1044 181.804 29.2218C182.131 29.6243 182.073 31.3097 182.056 34.6218C182.056 35.2422 182.065 35.8627 182.022 36.5C182.014 36.6174 181.838 36.8857 181.695 36.9612L181.679 36.97C181.67 36.9787 181.67 36.9788 181.662 36.9868C181.477 37.0959 181.268 37.1462 181.058 37.1378C180.354 36.9952 179.675 36.8191 178.995 36.6514C177.419 36.2657 176.178 35.9638 175.247 35.7207C174.325 35.9639 173.101 36.2573 171.55 36.643C170.87 36.8107 170.191 36.9868 169.487 37.1294C169.277 37.1381 169.068 37.0875 168.883 36.9784C168.875 36.9696 168.875 36.9697 168.866 36.9616C168.858 36.9528 168.85 36.9528 168.85 36.9528C168.707 36.8689 168.523 36.609 168.523 36.4916C168.481 35.8544 168.489 35.2338 168.489 34.6134C168.472 31.3013 168.414 29.6159 168.741 29.2134C168.833 29.096 168.942 28.987 169.042 28.878C161.68 18.0027 150 0 150 0C150 0 165.319 13.9024 175.264 23.1595C191.196 8.41023 196.847 5.34127 196.311 4.9891C196.336 5.00593 196.369 5.02262 196.394 5.0478C196.419 5.06463 196.453 5.08131 196.478 5.09814C196.109 4.85498 193.963 10.5316 181.494 28.8781L181.494 28.878ZM175.323 27.1004C174.057 27.1004 173.025 28.1401 173.034 29.4063C173.042 30.6724 174.073 31.7038 175.34 31.6954C176.606 31.6954 177.629 30.6641 177.629 29.3979C177.62 28.1318 176.589 27.1004 175.323 27.1004Z" fill="#553333"/>
<path d="M324.75 41.5H347.25V39H324.75V41.5ZM324.75 35.25H347.25V32.75H324.75V35.25ZM324.75 26.5V29H347.25V26.5H324.75Z" fill="black"/>
<g clip-path="url(#clip0)">
<path d="M19.2193 33.2188H5.63574C5.20426 33.2188 4.85449 33.5685 4.85449 34C4.85449 34.4315 5.20426 34.7812 5.63574 34.7812H19.2193C19.6507 34.7812 20.0005 34.4315 20.0005 34C20.0005 33.5685 19.6507 33.2188 19.2193 33.2188Z" fill="black"/>
<path d="M19.2193 27.3594H5.63574C5.20426 27.3594 4.85449 27.7091 4.85449 28.1406C4.85449 28.5721 5.20426 28.9219 5.63574 28.9219H19.2193C19.6507 28.9219 20.0005 28.5721 20.0005 28.1406C20.0005 27.7091 19.6507 27.3594 19.2193 27.3594Z" fill="black"/>
<path d="M19.2193 39.0781H5.63574C5.20426 39.0781 4.85449 39.4279 4.85449 39.8594C4.85449 40.2909 5.20426 40.6406 5.63574 40.6406H19.2193C19.6507 40.6406 20.0005 40.2909 20.0005 39.8594C20.0005 39.4279 19.6507 39.0781 19.2193 39.0781Z" fill="black"/>
<path d="M1.05469 29.1953C1.63718 29.1953 2.10938 28.7231 2.10938 28.1406C2.10938 27.5581 1.63718 27.0859 1.05469 27.0859C0.4722 27.0859 0 27.5581 0 28.1406C0 28.7231 0.4722 29.1953 1.05469 29.1953Z" fill="black"/>
<path d="M1.05469 35.0547C1.63718 35.0547 2.10938 34.5825 2.10938 34C2.10938 33.4175 1.63718 32.9453 1.05469 32.9453C0.4722 32.9453 0 33.4175 0 34C0 34.5825 0.4722 35.0547 1.05469 35.0547Z" fill="black"/>
<path d="M1.05469 40.9141C1.63718 40.9141 2.10938 40.4419 2.10938 39.8594C2.10938 39.2769 1.63718 38.8047 1.05469 38.8047C0.4722 38.8047 0 39.2769 0 39.8594C0 40.4419 0.4722 40.9141 1.05469 40.9141Z" fill="black"/>
</g>
<path d="M44 24C38.4861 24 34 28.4861 34 34C34 39.5139 38.4861 44 44 44C49.5139 44 54 39.5139 54 34C54 28.4861 49.5139 24 44 24ZM44 43.1304C38.9652 43.1304 34.8696 39.0348 34.8696 34C34.8696 28.9652 38.9652 24.8696 44 24.8696C49.0348 24.8696 53.1304 28.9652 53.1304 34C53.1304 39.0348 49.0348 43.1304 44 43.1304Z" fill="black"/>
<path d="M43.9998 33.5652C40.8833 33.5652 38.3477 36.1008 38.3477 39.2174C38.3477 39.4574 38.5425 39.6522 38.7825 39.6522C39.0225 39.6522 39.2172 39.4573 39.2172 39.2173C39.2172 36.5799 41.3625 34.4347 43.9998 34.4347C46.6372 34.4347 48.7824 36.5799 48.7824 39.2173C48.7824 39.4573 48.9772 39.6521 49.2172 39.6521C49.4572 39.6521 49.652 39.4573 49.652 39.2173C49.652 36.1008 47.1164 33.5652 43.9998 33.5652Z" fill="black"/>
<path d="M44.0005 26.6087C42.3223 26.6087 40.957 27.9739 40.957 29.6522C40.957 31.3305 42.3222 32.6957 44.0005 32.6957C45.6788 32.6957 47.044 31.3304 47.044 29.6522C47.044 27.9739 45.6788 26.6087 44.0005 26.6087ZM44.0005 31.8261C42.8023 31.8261 41.8266 30.8504 41.8266 29.6522C41.8266 28.4539 42.8023 27.4783 44.0005 27.4783C45.1988 27.4783 46.1744 28.4539 46.1744 29.6522C46.1744 30.8504 45.1988 31.8261 44.0005 31.8261Z" fill="black"/>
<g clip-path="url(#clip1)">
<path d="M86.5974 28.7282H82.3239V24.6572C82.3239 24.4763 82.1771 24.3294 81.9961 24.3294H74.0031C73.8221 24.3294 73.6753 24.4763 73.6753 24.6572V28.7282H69.4023C69.2319 28.7282 69.0882 28.8614 69.0756 29.0314L68.0009 43.3187C67.9941 43.4095 68.0256 43.4997 68.0869 43.5652C68.1483 43.6324 68.2359 43.6707 68.3277 43.6707H87.6726C87.7644 43.6707 87.852 43.6324 87.9128 43.5658C87.9747 43.4997 88.0062 43.4095 87.9993 43.3182L86.9247 29.0314C86.9121 28.8614 86.7684 28.7282 86.5974 28.7282ZM81.9961 30.8057C82.1619 30.8057 82.2967 30.94 82.2967 31.1046C82.2967 31.2699 82.1619 31.4046 81.9961 31.4046C81.8304 31.4046 81.6956 31.2699 81.6956 31.1046C81.6956 30.94 81.8304 30.8057 81.9961 30.8057ZM74.3309 24.9855H81.6683V28.7287H74.3309V24.9855ZM74.0031 30.8057C74.1688 30.8057 74.3036 30.94 74.3036 31.1046C74.3036 31.2699 74.1688 31.4046 74.0031 31.4046C73.8373 31.4046 73.7025 31.2699 73.7025 31.1046C73.7025 30.94 73.8373 30.8057 74.0031 30.8057ZM68.6806 43.0156L69.706 29.3843H73.6753V30.212C73.3097 30.3462 73.0469 30.6945 73.0469 31.1052C73.0469 31.6323 73.476 32.0608 74.0031 32.0608C74.5302 32.0608 74.9592 31.6323 74.9592 31.1052C74.9592 30.6945 74.6964 30.3462 74.3309 30.212V29.3843H81.6683V30.212C81.3028 30.3462 81.04 30.6945 81.04 31.1052C81.04 31.6323 81.469 32.0608 81.9961 32.0608C82.5232 32.0608 82.9523 31.6323 82.9523 31.1052C82.9523 30.6945 82.6895 30.3462 82.3239 30.212V29.3843H86.2937L87.3191 43.0156H68.6806Z" fill="#010002"/>
</g>
<path d="M112 42.8873C111.715 42.8873 111.441 42.7842 111.227 42.5968C110.419 41.8903 109.64 41.2264 108.953 40.6408L108.949 40.6377C106.934 38.9207 105.194 37.4378 103.984 35.9771C102.63 34.3441 102 32.7958 102 31.1043C102 29.461 102.564 27.9449 103.587 26.8351C104.622 25.7122 106.043 25.0938 107.587 25.0938C108.742 25.0938 109.799 25.4587 110.73 26.1785C111.199 26.5418 111.625 26.9865 112 27.5051C112.375 26.9865 112.801 26.5418 113.271 26.1785C114.201 25.4587 115.258 25.0938 116.413 25.0938C117.957 25.0938 119.378 25.7122 120.414 26.8351C121.437 27.9449 122 29.461 122 31.1043C122 32.7958 121.37 34.3441 120.016 35.9769C118.806 37.4378 117.066 38.9205 115.051 40.6374C114.363 41.224 113.583 41.8889 112.773 42.5971C112.559 42.7842 112.285 42.8873 112 42.8873ZM107.587 26.2653C106.374 26.2653 105.259 26.7496 104.448 27.6292C103.625 28.5219 103.171 29.7561 103.171 31.1043C103.171 32.5269 103.7 33.7992 104.886 35.2296C106.031 36.6122 107.736 38.0645 109.709 39.7462L109.713 39.7492C110.402 40.3371 111.184 41.0036 111.998 41.7153C112.817 41.0023 113.6 40.3347 114.292 39.7458C116.265 38.0642 117.969 36.6122 119.115 35.2296C120.3 33.7992 120.829 32.5269 120.829 31.1043C120.829 29.7561 120.375 28.5219 119.552 27.6292C118.741 26.7496 117.626 26.2653 116.413 26.2653C115.524 26.2653 114.708 26.5479 113.987 27.1052C113.345 27.602 112.898 28.23 112.635 28.6695C112.5 28.8955 112.263 29.0304 112 29.0304C111.737 29.0304 111.5 28.8955 111.365 28.6695C111.103 28.23 110.655 27.602 110.013 27.1052C109.292 26.5479 108.476 26.2653 107.587 26.2653Z" fill="black"/>
<defs>
<clipPath id="clip0">
<rect width="20" height="20" fill="white" transform="translate(0 24)"/>
</clipPath>
<clipPath id="clip1">
<rect width="20" height="20" fill="white" transform="translate(68 24)"/>
</clipPath>
</defs>
</svg>
