<svg width="25" height="24" viewBox="0 0 25 24" fill="none" xmlns="http://www.w3.org/2000/svg">
<path d="M3.5 3.993C3.5 3.445 3.945 3 4.493 3H20.507C21.055 3 21.5 3.445 21.5 3.993V20.007C21.4997 20.2703 21.395 20.5227 21.2089 20.7089C21.0227 20.895 20.7703 20.9997 20.507 21H4.493C4.22972 20.9997 3.9773 20.895 3.79114 20.7089C3.60497 20.5227 3.50026 20.2703 3.5 20.007V3.993ZM5.5 5V19H19.5V5H5.5ZM11.122 8.415L16.001 11.667C16.0559 11.7035 16.1009 11.753 16.132 11.8111C16.1631 11.8692 16.1794 11.9341 16.1794 12C16.1794 12.0659 16.1631 12.1308 16.132 12.1889C16.1009 12.247 16.0559 12.2965 16.001 12.333L11.121 15.585C11.0608 15.6249 10.991 15.6477 10.9189 15.6512C10.8468 15.6546 10.7751 15.6384 10.7114 15.6043C10.6477 15.5703 10.5945 15.5197 10.5573 15.4578C10.52 15.396 10.5003 15.3252 10.5 15.253V8.747C10.5001 8.67465 10.5199 8.60369 10.5572 8.54168C10.5944 8.47967 10.6478 8.42893 10.7116 8.39486C10.7755 8.36079 10.8473 8.34467 10.9196 8.34822C10.9919 8.35177 11.0618 8.37485 11.122 8.415Z" fill="black"/>
</svg>
