<svg width="20" height="20" viewBox="0 0 20 20" fill="none" xmlns="http://www.w3.org/2000/svg">
<path d="M8.81927 0.0239258C3.95637 0.0239258 0 3.96948 0 8.81914C0 13.6688 3.95641 17.6143 8.81927 17.6143C13.6821 17.6143 17.6386 13.6688 17.6386 8.81914C17.6386 3.96948 13.6822 0.0239258 8.81927 0.0239258ZM8.81927 16.1685C4.75349 16.1685 1.44578 12.8714 1.44578 8.8191C1.44578 4.76655 4.75349 1.46967 8.81927 1.46967C12.8851 1.46967 16.1928 4.76655 16.1928 8.8191C16.1928 12.8714 12.8851 16.1685 8.81927 16.1685Z" fill="#835752"/>
<path d="M19.7864 18.7403L15.0394 14.0174C14.7562 13.736 14.2986 13.7372 14.0169 14.0201C13.7355 14.3032 13.7367 14.7608 14.0196 15.0425L18.7666 19.7654C18.9078 19.9056 19.0919 19.9758 19.2765 19.9758C19.4623 19.9758 19.6478 19.9047 19.789 19.7628C20.0705 19.4796 20.0693 19.022 19.7864 18.7403Z" fill="#835752"/>
</svg>
