<svg width="30" height="31" viewBox="0 0 30 31" fill="none" xmlns="http://www.w3.org/2000/svg">
<path d="M16.4003 21.7788L11.1515 18.9163C10.4663 19.6488 9.57649 20.1584 8.59785 20.3786C7.61921 20.5989 6.59694 20.5197 5.66391 20.1513C4.73087 19.7829 3.93021 19.1425 3.36597 18.3131C2.80173 17.4837 2.5 16.5038 2.5 15.5006C2.5 14.4975 2.80173 13.5176 3.36597 12.6882C3.93021 11.8588 4.73087 11.2183 5.66391 10.85C6.59694 10.4816 7.61921 10.4024 8.59785 10.6227C9.57649 10.8429 10.4663 11.3524 11.1515 12.085L16.4015 9.22251C16.1035 8.0426 16.246 6.7945 16.8023 5.71214C17.3586 4.62978 18.2906 3.78749 19.4236 3.34314C20.5565 2.89879 21.8127 2.88289 22.9565 3.29843C24.1003 3.71396 25.0533 4.53241 25.6369 5.60034C26.2204 6.66827 26.3945 7.91237 26.1264 9.09944C25.8583 10.2865 25.1664 11.3351 24.1805 12.0485C23.1947 12.762 21.9824 13.0914 20.771 12.975C19.5596 12.8586 18.4323 12.3044 17.6003 11.4163L12.3503 14.2788C12.5518 15.0805 12.5518 15.9196 12.3503 16.7213L17.599 19.5838C18.431 18.6956 19.5584 18.1414 20.7698 18.025C21.9811 17.9086 23.1934 18.238 24.1793 18.9515C25.1652 19.665 25.857 20.7135 26.1251 21.9006C26.3932 23.0877 26.2192 24.3318 25.6356 25.3997C25.0521 26.4676 24.0991 27.2861 22.9552 27.7016C21.8114 28.1171 20.5553 28.1012 19.4223 27.6569C18.2894 27.2125 17.3574 26.3702 16.801 25.2879C16.2447 24.2055 16.1022 22.9574 16.4003 21.7775V21.7788ZM7.50026 18C8.1633 18 8.79918 17.7366 9.26802 17.2678C9.73687 16.7989 10.0003 16.1631 10.0003 15.5C10.0003 14.837 9.73687 14.2011 9.26802 13.7322C8.79918 13.2634 8.1633 13 7.50026 13C6.83722 13 6.20133 13.2634 5.73249 13.7322C5.26365 14.2011 5.00026 14.837 5.00026 15.5C5.00026 16.1631 5.26365 16.7989 5.73249 17.2678C6.20133 17.7366 6.83722 18 7.50026 18ZM21.2503 10.5C21.9133 10.5 22.5492 10.2366 23.018 9.76778C23.4869 9.29894 23.7503 8.66305 23.7503 8.00001C23.7503 7.33697 23.4869 6.70108 23.018 6.23224C22.5492 5.7634 21.9133 5.50001 21.2503 5.50001C20.5872 5.50001 19.9513 5.7634 19.4825 6.23224C19.0137 6.70108 18.7503 7.33697 18.7503 8.00001C18.7503 8.66305 19.0137 9.29894 19.4825 9.76778C19.9513 10.2366 20.5872 10.5 21.2503 10.5ZM21.2503 25.5C21.9133 25.5 22.5492 25.2366 23.018 24.7678C23.4869 24.2989 23.7503 23.6631 23.7503 23C23.7503 22.337 23.4869 21.7011 23.018 21.2322C22.5492 20.7634 21.9133 20.5 21.2503 20.5C20.5872 20.5 19.9513 20.7634 19.4825 21.2322C19.0137 21.7011 18.7503 22.337 18.7503 23C18.7503 23.6631 19.0137 24.2989 19.4825 24.7678C19.9513 25.2366 20.5872 25.5 21.2503 25.5Z" fill="black" fill-opacity="0.7"/>
</svg>
