<svg width="20" height="20" viewBox="0 0 20 20" fill="none" xmlns="http://www.w3.org/2000/svg">
<g clip-path="url(#clip0)">
<path d="M18.5979 4.72816H14.3244V0.657146C14.3244 0.4762 14.1776 0.329346 13.9966 0.329346H6.00356C5.82261 0.329346 5.67576 0.4762 5.67576 0.657146V4.72816H1.40282C1.23236 4.72816 1.08865 4.86138 1.07606 5.03131L0.00140495 19.3187C-0.00541329 19.4094 0.0260555 19.4996 0.0874197 19.5652C0.148784 19.6323 0.236372 19.6706 0.328156 19.6706H19.6731C19.7649 19.6706 19.8525 19.6323 19.9133 19.5657C19.9752 19.4996 20.0066 19.4094 19.9998 19.3181L18.9252 5.03131C18.9126 4.86138 18.7689 4.72816 18.5979 4.72816ZM13.9966 6.80563C14.1624 6.80563 14.2972 6.93989 14.2972 7.10458C14.2972 7.26979 14.1624 7.40458 13.9966 7.40458C13.8309 7.40458 13.6961 7.26979 13.6961 7.10458C13.6961 6.93989 13.8309 6.80563 13.9966 6.80563ZM6.33136 0.98547H13.6688V4.72868H6.33136V0.98547ZM6.00356 6.80563C6.16929 6.80563 6.30408 6.93989 6.30408 7.10458C6.30408 7.26979 6.16929 7.40458 6.00356 7.40458C5.83782 7.40458 5.70303 7.26979 5.70303 7.10458C5.70303 6.93989 5.83782 6.80563 6.00356 6.80563ZM0.681131 19.0155L1.70649 5.38428H5.67576V6.21191C5.31019 6.34618 5.04743 6.69444 5.04743 7.1051C5.04743 7.63221 5.47645 8.06071 6.00356 8.06071C6.53066 8.06071 6.95968 7.63221 6.95968 7.1051C6.95968 6.69444 6.69692 6.34618 6.33136 6.21191V5.38428H13.6688V6.21191C13.3033 6.34618 13.0405 6.69444 13.0405 7.1051C13.0405 7.63221 13.4695 8.06071 13.9966 8.06071C14.5237 8.06071 14.9528 7.63221 14.9528 7.1051C14.9528 6.69444 14.69 6.34618 14.3244 6.21191V5.38428H18.2942L19.3196 19.0155H0.681131Z" fill="#010002"/>
</g>
<defs>
<clipPath id="clip0">
<rect width="20" height="20" fill="white"/>
</clipPath>
</defs>
</svg>
