<svg width="20" height="20" viewBox="0 0 20 20" fill="none" xmlns="http://www.w3.org/2000/svg">
<path d="M9.99998 0C4.4861 0 0 4.4861 0 9.99998C0 15.5139 4.4861 20 9.99998 20C15.5139 20 20 15.5139 20 9.99998C20 4.4861 15.5139 0 9.99998 0ZM9.99998 19.1304C4.9652 19.1304 0.869551 15.0348 0.869551 9.99998C0.869551 4.9652 4.9652 0.869551 9.99998 0.869551C15.0348 0.869551 19.1304 4.9652 19.1304 9.99998C19.1304 15.0348 15.0348 19.1304 9.99998 19.1304Z" fill="black"/>
<path d="M10.0003 9.56519C6.88379 9.56519 4.34814 12.1008 4.34814 15.2174C4.34814 15.4574 4.54294 15.6522 4.78294 15.6522C5.02294 15.6522 5.21774 15.4573 5.21774 15.2173C5.21774 12.5799 7.36294 10.4347 10.0003 10.4347C12.6377 10.4347 14.7829 12.5799 14.7829 15.2173C14.7829 15.4573 14.9777 15.6521 15.2177 15.6521C15.4577 15.6521 15.6525 15.4573 15.6525 15.2173C15.6525 12.1008 13.1169 9.56519 10.0003 9.56519Z" fill="black"/>
<path d="M10.0005 2.60864C8.32227 2.60864 6.95703 3.97385 6.95703 5.65213C6.95703 7.33042 8.32223 8.69562 10.0005 8.69562C11.6788 8.69562 13.044 7.33038 13.044 5.65213C13.044 3.97389 11.6788 2.60864 10.0005 2.60864ZM10.0005 7.82603C8.80227 7.82603 7.82662 6.85038 7.82662 5.65213C7.82662 4.45389 8.80227 3.47823 10.0005 3.47823C11.1988 3.47823 12.1744 4.45389 12.1744 5.65213C12.1744 6.85038 11.1988 7.82603 10.0005 7.82603Z" fill="black"/>
</svg>
